<!-- src/github-icon.svg -->
<svg role="img" viewBox="0 0 24 24" xmlns="http://www.w3.org/2000/svg">
  <title>GitHub</title>
  <path fill="#4338CA" d="M12 .297c-6.63 0-12 5.373-12 12 0 5.303 3.438 9.8 8.205 11.387.6.113.82-.258.82-.577 0-.285-.01-1.04-.015-2.04-3.338.725-4.042-1.61-4.042-1.61-.546-1.387-1.333-1.757-1.333-1.757-1.09-.744.083-.729.083-.729 1.205.085 1.84 1.237 1.84 1.237 1.07 1.835 2.81 1.305 3.495.998.108-.775.418-1.305.76-1.605-2.665-.305-5.466-1.335-5.466-5.93 0-1.31.47-2.38 1.235-3.22-.123-.303-.535-1.527.117-3.176 0 0 1.005-.322 3.3 1.23a11.47 11.47 0 013.003-.403 11.48 11.48 0 013.003.403c2.28-1.552 3.285-1.23 3.285-1.23.653 1.649.241 2.873.118 3.176.77.84 1.23 1.91 1.23 3.22 0 4.61-2.805 5.62-5.475 5.92.43.37.823 1.1.823 2.22 0 1.604-.015 2.896-.015 3.286 0 .322.216.694.825.577C20.565 22.092 24 17.592 24 12.297c0-6.627-5.373-12-12-12"/>
</svg>
