<!-- src/instagram-icon.svg -->
<svg role="img" viewBox="0 0 24 24" xmlns="http://www.w3.org/2000/svg">
  <title>Instagram</title>
  <path fill="#4338CA" d="M12 2.163c3.204 0 3.584.012 4.85.07 1.366.062 2.633.336 3.608 1.311.975.975 1.25 2.242 1.312 3.608.058 1.266.069 1.646.069 4.849 0 3.204-.012 3.584-.07 4.849-.062 1.366-.336 2.633-1.311 3.608-.975.975-2.242 1.25-3.608 1.312-1.266.058-1.646.069-4.85.069-3.204 0-3.584-.012-4.849-.07-1.366-.062-2.633-.336-3.608-1.311-.975-.975-1.25-2.242-1.312-3.608-.059-1.266-.07-1.646-.07-4.849 0-3.204.012-3.584.07-4.849.062-1.366.336-2.633 1.311-3.608.975-.975 2.242-1.25 3.608-1.312C8.416 2.175 8.796 2.163 12 2.163zm0-2.163C8.741 0 8.332.012 7.052.07 5.771.127 4.67.393 3.678 1.384 2.686 2.376 2.42 3.477 2.363 4.758.305 6.038 0 6.447 0 12c0 5.553.305 5.962 2.363 7.242.057 1.281.323 2.382 1.315 3.374.991.992 2.092 1.258 3.373 1.315 1.281.057 1.69.363 7.243.363 5.553 0 5.962-.305 7.243-2.363.992-.991 1.258-2.092 1.315-3.373.057-1.281.363-1.69.363-7.243s-.305-5.962-2.363-7.242c-1.281-.057-2.382-.323-3.373-1.315-.992-.991-2.092-1.258-3.373-1.315C15.668.012 15.259 0 12 0zm0 5.838a6.162 6.162 0 100 12.324 6.162 6.162 0 000-12.324zm0 10.162a3.999 3.999 0 110-7.998 3.999 3.999 0 010 7.998zm6.406-11.845a1.44 1.44 0 11-2.88 0 1.44 1.44 0 012.88 0z"/>
</svg>
