<!-- src/linkedin-icon.svg -->
<svg role="img" viewBox="0 0 24 24" xmlns="http://www.w3.org/2000/svg">
  <title>LinkedIn</title>
  <path fill="#4338CA" d="M22.23 0H1.77C.79 0 0 .77 0 1.75v20.5C0 23.23.79 24 1.77 24h20.46c.98 0 1.77-.77 1.77-1.75V1.75C24 .77 23.21 0 22.23 0zM7.12 20.45H3.56V9h3.56v11.45zM5.34 7.5a2.05 2.05 0 11.01-4.1 2.05 2.05 0 01-.01 4.1zM20.45 20.45h-3.56v-5.82c0-1.39-.03-3.18-1.94-3.18-1.95 0-2.25 1.52-2.25 3.08v5.92h-3.56V9h3.42v1.56h.05c.48-.91 1.67-1.87 3.44-1.87 3.68 0 4.35 2.42 4.35 5.57v6.19h-.01z"/>
</svg>
