<!-- src/twitter-icon.svg -->
<svg role="img" viewBox="0 0 24 24" xmlns="http://www.w3.org/2000/svg">
  <title>Twitter</title>
  <path fill="#4338CA" d="M23.643 4.937c-.835.37-1.73.617-2.675.728.963-.576 1.697-1.49 2.048-2.578-.899.534-1.897.922-2.958 1.13-.849-.905-2.06-1.471-3.396-1.471-2.623 0-4.75 2.126-4.75 4.75 0 .372.042.734.123 1.084-3.947-.2-7.446-2.087-9.792-4.964-.408.697-.641 1.51-.641 2.377 0 1.64.834 3.088 2.104 3.935-.774-.025-1.502-.237-2.138-.59v.06c0 2.287 1.63 4.192 3.788 4.624-.397.108-.816.167-1.248.167-.305 0-.601-.03-.891-.085.602 1.88 2.348 3.248 4.416 3.285-1.617 1.27-3.656 2.024-5.87 2.024-.38 0-.756-.022-1.127-.066 2.092 1.342 4.576 2.127 7.243 2.127 8.696 0 13.45-7.202 13.45-13.45 0-.205-.005-.41-.014-.614.924-.666 1.724-1.498 2.357-2.447z"/>
</svg>
